<?xml version="1.0" standalone="no"?>
<!DOCTYPE svg PUBLIC "-//W3C//DTD SVG 20010904//EN"
 "http://www.w3.org/TR/2001/REC-SVG-20010904/DTD/svg10.dtd">
<svg version="1.0" xmlns="http://www.w3.org/2000/svg"
 width="512.000000pt" height="512.000000pt" viewBox="0 0 512.000000 512.000000"
 preserveAspectRatio="xMidYMid meet">
<metadata>
Created by potrace 1.14, written by Peter Selinger 2001-2017
</metadata>
<g transform="translate(0.000000,512.000000) scale(0.100000,-0.100000)"
fill="#000000" stroke="none">
<path d="M885 4633 c-115 -25 -209 -94 -277 -204 -14 -22 -33 -79 -43 -129 -2
-8 -4 -187 -4 -397 l-1 -383 -240 0 -240 0 0 -1334 c0 -864 4 -1352 10 -1387
23 -119 122 -240 236 -289 l59 -25 2155 -2 c2292 -3 2174 -5 2284 42 59 25
142 115 179 192 l32 68 3 1368 2 1367 -240 0 -240 0 -1 373 c0 204 -3 390 -5
412 -14 115 -125 257 -240 305 l-59 25 -1675 1 c-921 1 -1684 0 -1695 -3z"/>
</g>
</svg>
